<svg xmlns="http://www.w3.org/2000/svg" width="32" height="32" viewBox="0 0 28 32" fill="none">
  <!-- Squiggle accent above P -->
  <path d="M2 6 Q 8 0, 15 6 T 28 3" stroke="#5B7FEC" stroke-width="2.5" stroke-linecap="round" fill="none"/>
  <!-- Calligraphy P with curved bottom-left tail -->
  <path d="M18 1C10.5 1 5.5 5.5 5.5 13v13a1.5 1.5 0 0 0 3 0V18.5h11c6.5 0 10-3.5 10-9S24 1 18 1zm-9.5 15V6.7c0-4.2 3.5-6.7 9.5-6.7s11 3.2 11 9-3.5 8.5-10.5 8.5H8.5v-2zm12-4c0 2.5-1.5 4-4 4s-4-1.5-4-4 1.5-4 4-4 4 1.5 4 4z" fill="#5B7FEC"/>
</svg>